<?xml version="1.0" encoding="utf-8" ?><svg xmlns="http://www.w3.org/2000/svg" width="1120" height="1120" viewBox="528 1959 1120 1120"><path fill="#434343" d="M1023.15 2006.84C1041.3 2003.48 1083.24 2005.77 1101.83 2006.81C1363.57 2021.51 1611.45 2229.61 1631.2 2500.35C1640.68 2627.56 1599.11 2753.32 1515.68 2849.83C1423.42 2956.24 1292.72 3013.02 1153.51 3022.47C1007.33 3033.78 852.183 2981.34 739.087 2888.96C630.333 2800.56 561.571 2672.23 548.191 2532.72C535.346 2405.98 574.593 2279.46 656.915 2182.24C753.329 2066.92 877.115 2019.37 1023.15 2006.84Z"/><path fill="#D6D6D6" d="M1133.46 2466.91C1134.99 2466.57 1140.25 2466.57 1142.05 2466.52C1159.24 2477.87 1130.76 2519.42 1122.73 2534.27C1134.26 2542.03 1145.82 2548.45 1142.37 2564.56C1124.04 2593.15 1077.33 2581.6 1046.34 2592.04C1039.37 2591.61 1036.29 2590.18 1031.83 2584.96C1025.38 2566.44 1045 2538.18 1054.17 2518.94C1042.4 2511.42 1035.25 2508.65 1031.44 2495.19C1035.97 2467.3 1110.15 2468.86 1133.46 2466.91Z"/><path fill="#B6B6B6" d="M866.943 2881.67C886.063 2889.36 912.28 2903.13 931.464 2912.58C920.091 2932.51 912.19 2944.95 913.278 2968.66C882.12 2955.74 861.377 2947.14 832.154 2929.46C841.597 2915.26 856.612 2895.83 866.943 2881.67Z"/><path fill="#606062" d="M931.464 2912.58C942.268 2916.32 977.172 2927.78 985.461 2932.83C986.465 2942.93 987.88 2954.5 988.558 2964.51C988.836 2973.89 990.222 2983.39 991.353 2992.74C964.214 2986.52 938.667 2980.66 913.278 2968.66C912.19 2944.95 920.091 2932.51 931.464 2912.58Z"/><path fill="#1E1D1D" d="M1144.03 2354.19C1078.41 2330.09 996.459 2341.54 951.984 2402.49C945.451 2411.44 940.367 2421.22 932.151 2428.74C934.105 2412.87 942.235 2404.35 951.638 2392.68C1022.42 2304.86 1173.93 2321.58 1238.73 2407.94C1278.39 2460.79 1286.9 2519.97 1264.12 2581.47C1262.47 2559.82 1268.77 2540.43 1270.02 2519.26C1273.76 2455.9 1222.21 2368.84 1156.18 2358.79C1153.13 2358.07 1147.19 2355.46 1144.03 2354.19Z"/><path fill="#282829" d="M952.804 2043.67L954.834 2046.19C957.2 2073.77 971.941 2295.75 968.76 2308.51L965.138 2309.79C954.788 2236.87 953.465 2157.14 943.711 2083.13C951.926 2066.24 953.466 2062.32 952.804 2043.67Z"/><path fill="#818181" d="M1127.81 2381.75C1130.75 2368.81 1130.77 2359.99 1144.03 2354.19C1147.19 2355.46 1153.13 2358.07 1156.18 2358.79C1165.26 2364.74 1176.25 2371.25 1175.02 2383.54C1162.54 2399.38 1142.15 2388.71 1127.81 2381.75Z"/><path fill="#282829" d="M985.461 2932.83C984.521 2909.43 980.679 2778.6 986.298 2764.55C988.567 2788.67 996.54 2950.96 988.558 2964.51C987.88 2954.5 986.465 2942.93 985.461 2932.83Z"/><path fill="#0B0A0B" d="M1534.25 2506.84C1557.05 2516.58 1558.69 2543.46 1531.33 2545.12L1509.73 2534.07C1518.22 2530.83 1523.72 2530.56 1531.77 2525.36C1536.21 2517.06 1534.56 2517.79 1534.25 2506.84Z"/><path fill="#282829" d="M1430.34 2500.92C1448.38 2499.07 1489.12 2501.65 1507.14 2504.27L1508 2506.3C1496.47 2513.63 1439.22 2510.37 1430.34 2500.92Z"/><path fill="#1E1D1D" d="M644.958 2497.41L651.871 2498.68C657.732 2509.38 650.748 2518.3 642.815 2525.54C638.594 2520.05 633.421 2514.81 632.698 2508.2C636.472 2500.96 636.839 2502.48 644.958 2497.41Z"/></svg>