<?xml version="1.0" encoding="utf-8" ?><svg xmlns="http://www.w3.org/2000/svg" xmlns:xlink="http://www.w3.org/1999/xlink" width="4096" height="4096" viewBox="0 0 4096 4096"><path fill="#D6D6D6" d="M2069.6 1228.32C2177.99 1146.07 2360.6 1058.92 2490.9 1023.3C2693.16 967.999 2888.83 961.681 3076.81 1065.28C3184.67 1126.96 3259.81 1205.05 3326.13 1309.07C3371.67 1312.85 3479.74 1321.75 3522.61 1333C3524.1 1344.4 3530.4 1388.22 3535.98 1395.71L3536.49 1409.02C3535.88 1416.45 3535.44 1424.5 3534.08 1431.77C3530.61 1460.92 3528.72 1493.55 3523.36 1521.89L3523.94 1529.83C3570.68 1555.36 3614.44 1580.49 3657.81 1611.93C3679.96 1627.99 3702.76 1651.17 3724.64 1666.05C3749.36 1683.91 3827.13 1750.56 3830.23 1780.62C3836.01 1836.74 3833.33 1904.77 3831.1 1961.8C3830.67 1972.79 3812.43 2000.21 3804.84 2009.71L3805.55 2011.64C3810.52 2024.8 3820.3 2040.02 3823.24 2051.4C3829 2073.72 3817.9 2100.1 3825.78 2122.45L3827.42 2125.62C3843.46 2149.39 3859.99 2176.08 3865.85 2204.47C3868.34 2216.52 3866.84 2234.14 3866.01 2246.73C3860.71 2327 3862.99 2408.3 3851.13 2488.03C3850.73 2490.76 3849.81 2493.81 3849.07 2496.46C3845.99 2511.3 3844.2 2519.08 3835.48 2532.03L3831.08 2537.64C3824.12 2547.9 3827.21 2552.24 3815.45 2558.56L3813.08 2560.19C3804.68 2578.29 3809.14 2579.27 3790.08 2591.55L3784.22 2593.95C3781.75 2612.71 3776.78 2613.72 3759.97 2619.56C3758.37 2629.4 3758.36 2629.83 3753.26 2638.19C3747.81 2644.04 3736.02 2645.46 3727.89 2647.06C3727.32 2656.88 3727.39 2657.51 3723.76 2666.47L3719.17 2670.02C3708.59 2672.71 3700.43 2673.62 3689.69 2675.05C3680.98 2681.67 3685.33 2691.37 3680.33 2695.81C3532.35 2827.43 3327.38 2897.16 3130.96 2904.66C3127.41 2904.8 3125.31 2908.32 3123.8 2910.45C3110.31 2935.54 3095.84 2963.76 3081.04 2987.75C2997.61 2989.58 3010.97 2990.56 2990.16 2911.32C2976.74 2906.57 2888.24 2903.87 2866.69 2902.37C2833.66 2900.07 2812.36 2897.86 2777.68 2892.04C2717.95 2890.06 2658.32 2886.2 2598.37 2884.97C2502.3 2883.56 2406.2 2884.51 2310.18 2887.82C2248.79 2889.64 2182.25 2891.21 2121.13 2895.5C2115.5 2937.53 2112.79 2956.72 2064.16 2954.12C2052.84 2953.51 2041.06 2953.3 2029.6 2952.36C2011.82 2940.43 2009.8 2931.6 2003.57 2910.41C1999.64 2907.39 2001.24 2908.15 1996.31 2906.94C1971.5 2905.33 1938.03 2907.47 1912.23 2908.02C1894.97 2898.62 1877.41 2880.81 1865.49 2865.25C1858.31 2804.46 1852.64 2700.51 1851.92 2638.57C1851.12 2630.5 1851.17 2623.87 1847.59 2616.67C1829.09 2608.28 1768.97 2603.11 1744.77 2607.56C1735.76 2629.85 1732.9 2657.07 1723.62 2679.61C1721.78 2684.09 1710.71 2691.72 1710.61 2692.17C1706.47 2710.81 1702.58 2743.19 1686.81 2756.36C1656.56 2759.44 1653.78 2776.79 1641.15 2801.68L1654.03 2819.51C1646.23 2838.21 1630.19 2885 1611.24 2895.04C1600.88 2900.53 1581.13 2881.9 1568.59 2887.59C1561.96 2898.89 1567.07 2912.15 1570.01 2925.08C1559.62 2932.64 1555.32 2936.39 1546.15 2945.08C1513.19 2942.68 1500.66 2955.32 1472.75 2973.15L1466.69 3027.2C1455.84 3032.25 1448.26 3034.64 1437.03 3038.28C1423.51 3029.19 1415.69 3020.62 1405.17 3008.52C1393.41 3012.67 1382.81 3017.7 1371.48 3022.87C1365.7 3030.42 1361.11 3039.54 1356.48 3047.93C1354.73 3048.56 1337.96 3054.58 1336.64 3054.16C1327.69 3051.31 1262.86 3051.37 1259.39 3059.46C1251.39 3078.13 1254.38 3099.63 1232.47 3113.6C1209.7 3115.96 1202.5 3088.34 1196.23 3071.1C1177.83 3071.31 1162.8 3072.55 1144.77 3075.78C1140.44 3080.45 1131.6 3091.12 1124.89 3088.91C1085.78 3076 1057.16 3070.41 1015.68 3067.51C1007.26 3081.67 1002.42 3093.94 996.005 3109.15L967.626 3102.88C966.067 3090.25 964.525 3068.89 957.314 3058.91C926.965 3016.9 890.939 3075.18 861.467 3018.83C841.163 3009.53 821.043 2999.83 801.117 2989.74C787.971 3004.04 785.723 3007.26 769.952 3017.64C761.253 3014.96 755.987 3014.13 749.164 3008.27C741.915 2995.74 750.299 2979.41 754.077 2962.09C733.955 2947.34 709.662 2922.83 685.471 2919.36C671.843 2917.4 648.149 2869.75 637.775 2856.98C625.495 2861.73 607.259 2871.49 595.01 2877.59C537.406 2832.03 622.191 2844.2 584.905 2789.73C578.147 2779.86 536.309 2731.18 536.647 2732.95C524.565 2669.78 542.039 2664.34 470.802 2663.2C468.21 2655.68 462.994 2642.35 464.148 2634.99C471.28 2589.54 513.94 2565.43 469.068 2521.06C467.917 2512.15 467.602 2500.77 467.092 2491.62C468.876 2488.73 470.566 2485.79 472.161 2482.79C488.228 2452.31 462.818 2443.99 440.199 2434.22C448.202 2398.38 456.781 2377.2 476.696 2346.43C488.307 2328.49 496.454 2318.97 478.749 2301.6C462.627 2288.09 454.553 2280.09 433.82 2273.67C427.576 2274.07 421.919 2274.1 415.884 2275.74C410.145 2290.07 402.238 2294.31 388.844 2300.02L386.653 2300.94C377.332 2344.6 358.227 2454.81 329.742 2486.84C318.085 2499.95 301.834 2508.95 284.112 2509.73C266.247 2510.52 249.679 2503.44 236.751 2491.3C219.733 2475.32 208.091 2451.92 207.39 2428.44C206.266 2390.73 231.306 2358.09 234.471 2320.85C243.03 2220.15 263.617 1725.44 293.204 1671.01C312.548 1635.42 353.512 1602.45 391.108 1588.1C416.323 1578.48 440.118 1575.07 460.028 1555.01C481.897 1532.97 498.054 1505.38 519.887 1483.19C536.179 1466.64 561.093 1452.2 573.135 1432.46C579.687 1421.71 583.024 1410.03 586.804 1398.13C595.966 1369.28 606.448 1347.11 627.3 1324.7C684.789 1262.93 825.869 1211.66 911.755 1208.02C942.214 1202.37 973.026 1200.84 1002.73 1193.08C1212.42 1138.27 1401.47 1045.13 1623.9 1088.23C1762.01 1114.99 1872.6 1184.56 2002.14 1234.76C2013.79 1239.12 2026.72 1243.6 2037.96 1248.58C2048.58 1246.41 2059.42 1235.52 2069.6 1228.32Z"/><path fill="#B6B6B6" d="M2069.6 1228.32C2177.99 1146.07 2360.6 1058.92 2490.9 1023.3C2693.16 967.999 2888.83 961.681 3076.81 1065.28C3184.67 1126.96 3259.81 1205.05 3326.13 1309.07C3371.67 1312.85 3479.74 1321.75 3522.61 1333C3524.1 1344.4 3530.4 1388.22 3535.98 1395.71L3536.49 1409.02C3535.88 1416.45 3535.44 1424.5 3534.08 1431.77C3530.61 1460.92 3528.72 1493.55 3523.36 1521.89L3523.94 1529.83C3570.68 1555.36 3614.44 1580.49 3657.81 1611.93C3679.96 1627.99 3702.76 1651.17 3724.64 1666.05L3716.27 1666.24C3715.05 1669.61 3725.29 1692.81 3726.9 1698.89C3751.68 1792.24 3610.72 1805.31 3550.87 1815.87C3477.59 1828.8 3403.47 1835.87 3329.68 1836.33C3216.83 1836.55 3104.12 1828.46 2992.46 1812.13C2885.51 1797.42 2776.18 1779.07 2668.45 1774.35C2625.76 1772.48 2579.07 1775.48 2536.3 1774.08C2449.91 1771.27 2367.48 1770.06 2281.25 1773.7C2180.25 1777.95 2046.55 1809.51 1948.63 1795.24C1845.55 1780.22 1699.9 1705.51 1607.27 1655.27L1583.99 1645.37C1353.68 1546.03 1194.74 1512.5 946.894 1563.77C908.883 1571.77 871.142 1581 833.73 1591.45C740.209 1617.63 618.843 1661.12 520.473 1624.36C512.966 1621.56 509.326 1617.83 506.787 1610.71C511.858 1583.58 562.173 1581.47 584.565 1570.76C637.137 1545.6 662.019 1479.64 700.904 1440.12C729.668 1410.88 757.569 1394.72 784.601 1362C782.951 1358.65 781.386 1355.25 779.907 1351.81C774.135 1338.43 774.236 1323.24 780.186 1309.94C802.634 1258.38 899.877 1228.96 947.948 1208.95C934.553 1209.11 925.11 1209.03 911.755 1208.02C942.214 1202.37 973.026 1200.84 1002.73 1193.08C1212.42 1138.27 1401.47 1045.13 1623.9 1088.23C1762.01 1114.99 1872.6 1184.56 2002.14 1234.76C2013.79 1239.12 2026.72 1243.6 2037.96 1248.58C2048.58 1246.41 2059.42 1235.52 2069.6 1228.32Z"/><defs><linearGradient id="gradient_0" gradientUnits="userSpaceOnUse" x1="2676.6445" y1="1605.2926" x2="2735.8896" y2="1023.0004"><stop offset="0" stop-color="#030303"/><stop offset="1" stop-color="#252526"/></linearGradient></defs><path fill="url(#gradient_0)" d="M2069.6 1228.32C2177.99 1146.07 2360.6 1058.92 2490.9 1023.3C2693.16 967.999 2888.83 961.681 3076.81 1065.28C3184.67 1126.96 3259.81 1205.05 3326.13 1309.07C3371.67 1312.85 3479.74 1321.75 3522.61 1333C3524.1 1344.4 3530.4 1388.22 3535.98 1395.71L3536.49 1409.02C3535.88 1416.45 3535.44 1424.5 3534.08 1431.77C3530.61 1460.92 3528.72 1493.55 3523.36 1521.89L3523.94 1529.83C3521.99 1559.21 3567.27 1570.44 3566.8 1596.99C3566.73 1602.77 3564.31 1608.27 3560.11 1612.23C3484.65 1643.6 3145.17 1620.86 3050.4 1616.06C2883.06 1609.09 2715.86 1598.96 2548.9 1585.66C2439.69 1576.04 2332.02 1561.47 2222.84 1551.19C2097.59 1539.4 1966.7 1537.68 1842.28 1524.34C1832.27 1515.52 1822.66 1507.7 1812.25 1499.35L1811.83 1463.48C1814.02 1452.57 1816.14 1449.41 1821.38 1439.79L1827.98 1431.82C1832.6 1425.04 1834.17 1419.89 1837.19 1412.19L1848.23 1412.92L1852.13 1411.05L1852.88 1407.25C1866.04 1392.88 1891.61 1371.79 1900.86 1358.25C1916.87 1357.59 1947.96 1328.71 1956.77 1315.89C1981.3 1293.05 2012.86 1273.18 2038.93 1251.41L2037.96 1248.58C2048.58 1246.41 2059.42 1235.52 2069.6 1228.32Z"/><path fill="#606062" d="M2069.6 1228.32C2177.99 1146.07 2360.6 1058.92 2490.9 1023.3C2693.16 967.999 2888.83 961.681 3076.81 1065.28C3184.67 1126.96 3259.81 1205.05 3326.13 1309.07C3371.67 1312.85 3479.74 1321.75 3522.61 1333C3524.1 1344.4 3530.4 1388.22 3535.98 1395.71C3479.32 1387.69 3404.83 1383.11 3346.87 1377.83C3341.55 1376.86 3329.64 1375.69 3326.29 1372.68C3329.78 1368.1 3331.52 1367.25 3336.11 1363.83C3336 1356.61 3327.43 1343.92 3323.48 1337.44C3203.24 1139.73 2991.14 993.882 2753.47 1005.77C2434.61 1021.72 2121.17 1183.21 1898.53 1407.2C1894.93 1410.82 1844.32 1429.84 1834.16 1435.16C1839.47 1429.06 1850.34 1417.98 1852.13 1411.05L1852.88 1407.25C1866.04 1392.88 1891.61 1371.79 1900.86 1358.25C1916.87 1357.59 1947.96 1328.71 1956.77 1315.89C1981.3 1293.05 2012.86 1273.18 2038.93 1251.41L2037.96 1248.58C2048.58 1246.41 2059.42 1235.52 2069.6 1228.32Z"/><path fill="#818181" d="M2069.6 1228.32C2177.99 1146.07 2360.6 1058.92 2490.9 1023.3C2693.16 967.999 2888.83 961.681 3076.81 1065.28L3074.43 1070.4C3065.29 1070.36 3047.36 1058.84 3038.43 1054.46C2742.97 909.461 2383.16 1045.63 2123.71 1206.94C2113.82 1213.1 2105.96 1218.49 2095.45 1223.51L2096.58 1222.3C2088.54 1226.32 2081.33 1229.94 2073.48 1234.4C2072.16 1232.4 2070.86 1230.37 2069.6 1228.32Z"/><path fill="#434343" d="M1834.16 1435.16C1844.32 1429.84 1894.93 1410.82 1898.53 1407.2C2121.17 1183.21 2434.61 1021.72 2753.47 1005.77C2991.14 993.882 3203.24 1139.73 3323.48 1337.44C3327.43 1343.92 3336 1356.61 3336.11 1363.83C3331.52 1367.25 3329.78 1368.1 3326.29 1372.68C3329.64 1375.69 3341.55 1376.86 3346.87 1377.83C3336.95 1377.53 3325.98 1377.85 3315.97 1377.92L3314.67 1374.44L3315.72 1370.24C3290.87 1333.29 3221.69 1307.03 3196.11 1257.38C3196.9 1220.74 3196.96 1206.66 3168.47 1179.17C3129.43 1142.02 3072.39 1106.54 3024.78 1080.98C2956.19 1044.16 2859.88 1029.01 2781.75 1028.51C2540.92 1026.96 2308.81 1129.69 2109.31 1257.13C2093.46 1267.26 2078.59 1282.92 2063.28 1294.02C2040.93 1309.11 2019.18 1317.82 2000.08 1337.46C1995.94 1341.72 1967.07 1372.42 1966.21 1372.72C1939.35 1381.75 1942.91 1388.72 1925.54 1409.97C1915.09 1422.75 1909.03 1410.5 1898.51 1434.48C1894.29 1438.63 1894.06 1437.78 1888.84 1438.47C1873.51 1440.52 1843.54 1478.44 1824.41 1469.16C1821.32 1457.98 1830.22 1450.8 1830.9 1434.93L1827.98 1431.82C1832.6 1425.04 1834.17 1419.89 1837.19 1412.19L1848.23 1412.92L1852.13 1411.05C1850.34 1417.98 1839.47 1429.06 1834.16 1435.16Z"/><path fill="#0B0A0B" d="M1837.19 1412.19L1848.23 1412.92C1843.28 1418.94 1834.79 1428.66 1830.9 1434.93L1827.98 1431.82C1832.6 1425.04 1834.17 1419.89 1837.19 1412.19Z"/><defs><linearGradient id="gradient_1" gradientUnits="userSpaceOnUse" x1="3419.8625" y1="1424.8905" x2="3420.1399" y2="1398.8751"><stop offset="0" stop-color="#535254"/><stop offset="1" stop-color="#363435"/></linearGradient></defs><path fill="url(#gradient_1)" d="M3314.67 1374.44L3315.97 1377.92C3325.98 1377.85 3336.95 1377.53 3346.87 1377.83C3404.83 1383.11 3479.32 1387.69 3535.98 1395.71L3536.49 1409.02C3535.88 1416.45 3535.44 1424.5 3534.08 1431.77C3497.19 1423.75 3458.03 1423.17 3420.56 1419.49C3408.01 1418.25 3387.63 1417.25 3375.99 1414.34C3358.75 1414 3330 1413.06 3314.05 1407.04C3311.57 1402.27 3312.23 1397.54 3312.23 1392.02C3312.72 1389.53 3310.66 1385.13 3309.67 1382.38L3314.67 1374.44Z"/><path fill="#0B0A0B" d="M3314.67 1374.44L3315.97 1377.92C3325.98 1377.85 3336.95 1377.53 3346.87 1377.83C3404.83 1383.11 3479.32 1387.69 3535.98 1395.71L3536.49 1409.02C3520.41 1406.14 3510.86 1405.01 3494.56 1403.86C3474.72 1401.56 3448.53 1398.92 3428.65 1398.44C3421.85 1399.46 3411.41 1400.67 3405.12 1402.67C3385.8 1400.68 3324.31 1399.74 3312.23 1392.02C3312.72 1389.53 3310.66 1385.13 3309.67 1382.38L3314.67 1374.44Z"/><path fill="#434343" d="M3314.67 1374.44L3315.97 1377.92C3316.67 1388.56 3330.39 1388.63 3339.76 1389.94C3369.2 1394.06 3399.09 1394.98 3428.65 1398.44C3421.85 1399.46 3411.41 1400.67 3405.12 1402.67C3385.8 1400.68 3324.31 1399.74 3312.23 1392.02C3312.72 1389.53 3310.66 1385.13 3309.67 1382.38L3314.67 1374.44Z"/><path fill="#606062" d="M3428.65 1398.44C3448.53 1398.92 3474.72 1401.56 3494.56 1403.86C3469.01 1412.18 3432.19 1405.85 3405.12 1402.67C3411.41 1400.67 3421.85 1399.46 3428.65 1398.44Z"/><path fill="#606062" d="M3314.05 1407.04C3324.65 1400.26 3365.45 1405.46 3375.99 1414.34C3358.75 1414 3330 1413.06 3314.05 1407.04Z"/><path fill="#434343" d="M3523.36 1521.89L3523.94 1529.83C3521.99 1559.21 3567.27 1570.44 3566.8 1596.99C3566.73 1602.77 3564.31 1608.27 3560.11 1612.23C3536.38 1592.26 3518.78 1582.79 3490.63 1570.85C3481.8 1561.67 3470.2 1562.54 3457.4 1554.3C3461.79 1551.77 3484.02 1554.1 3495.23 1550.3C3503.23 1550.32 3510.86 1551.22 3517.82 1547.61C3522.8 1540.91 3522.06 1531.43 3523.36 1521.89Z"/><path fill="#1E1D1D" d="M3424.15 1549.3C3431.37 1549.1 3444.15 1548.32 3450.82 1549.38C3463.7 1549.57 3482.88 1549.28 3495.23 1550.3C3484.02 1554.1 3461.79 1551.77 3457.4 1554.3C3470.2 1562.54 3481.8 1561.67 3490.63 1570.85C3478.55 1568.15 3466.16 1562.66 3454.53 1558.06C3454.52 1571.73 3455.99 1602.64 3438.03 1602.66C3421.25 1594.21 3405.13 1560.16 3424.15 1549.3Z"/><path fill="#606062" d="M3424.15 1549.3C3431.37 1549.1 3444.15 1548.32 3450.82 1549.38C3452.52 1563.53 3456.12 1586.72 3438.79 1592.26C3428.99 1586.1 3429.94 1561.85 3424.15 1549.3Z"/><path fill="#434343" d="M2764.27 1108.81C2793.71 1104.92 2877.76 1104.75 2899.15 1135.3C2908.03 1147.98 2891.87 1163.68 2886.67 1177.03C2888.3 1198.68 2931.97 1203.68 2944.1 1221.48C2954.95 1237.39 2963.33 1254.54 2941.05 1266.1C2903.8 1285.43 2858.51 1278.73 2820 1267.09C2809.9 1262.15 2799.84 1261.03 2785.77 1252.37C2765.69 1244.08 2783.17 1200.74 2775.27 1194.05C2749.93 1172.57 2623.71 1199.25 2608.91 1169.93C2612.76 1132.3 2732.84 1112.45 2764.27 1108.81Z"/><path fill="#434343" d="M3478.14 1585C3488.63 1583.96 3498.35 1581.72 3506.78 1587.96L3507.01 1593.06C3497.71 1592.27 3486.45 1589.51 3477.39 1587.23L3478.14 1585Z"/><path fill="#818181" d="M908.901 1465.71C931.681 1398.9 984.807 1347.92 1054.19 1337.26C1101.18 1330.04 1141.61 1328.21 1188.01 1323.64C1295.28 1313.08 1400.22 1313.28 1507.56 1311.39C1608.83 1309.24 1710.13 1309.47 1811.39 1312.09C1852.22 1312.78 1918.19 1311.98 1956.77 1315.89C1947.96 1328.71 1916.87 1357.59 1900.86 1358.25C1891.61 1371.79 1866.04 1392.88 1852.88 1407.25L1852.13 1411.05L1848.23 1412.92L1837.19 1412.19C1834.17 1419.89 1832.6 1425.04 1827.98 1431.82L1821.38 1439.79C1816.14 1449.41 1814.02 1452.57 1811.83 1463.48C1806.55 1470.92 1808.15 1471.36 1801.35 1473.29L1795.94 1469.67C1793.92 1469.09 1767.21 1470.99 1754.47 1469.41C1748.03 1467.36 1740.23 1468.24 1733.29 1468.5L1730.39 1479.43C1733.85 1491.77 1737.75 1504.76 1740.42 1517.21C1729.08 1517.95 1719.59 1518.15 1708.27 1518.22L1693.5 1518.42C1595.82 1517.21 1498.05 1516.88 1400.93 1504.77C1371.92 1501.16 1340.66 1497.14 1311.55 1496.32L1300.62 1494.47L1281.22 1493.92L1222.2 1493.51C1210.3 1493.76 1198.4 1493.85 1186.5 1493.78C1136.11 1497.55 1052.68 1510.35 1008.31 1510.62C993.258 1505.82 974.318 1502.1 958.643 1498.59C942.024 1490.75 938.433 1489.63 922.702 1479.23C918.227 1475.71 913.016 1469.95 908.901 1465.71Z"/><defs><linearGradient id="gradient_2" gradientUnits="userSpaceOnUse" x1="1537.9403" y1="1351.1454" x2="1544.6542" y2="1519.7864"><stop offset="0" stop-color="#706F6F"/><stop offset="1" stop-color="#898A89"/></linearGradient></defs><path fill="url(#gradient_2)" d="M1694.25 1350.52C1714.44 1350.89 1742.57 1352.04 1762.63 1354.45L1760.73 1358.72L1770.23 1362.33C1776 1366.61 1775.62 1366.26 1777.98 1373.08C1777.32 1383.63 1773.92 1387.89 1768.65 1397.38C1761.79 1408.12 1754.35 1420.35 1746.87 1430.49C1735.31 1445.75 1735.89 1449.87 1733.29 1468.5L1730.39 1479.43C1733.85 1491.77 1737.75 1504.76 1740.42 1517.21C1729.08 1517.95 1719.59 1518.15 1708.27 1518.22L1693.5 1518.42C1595.82 1517.21 1498.05 1516.88 1400.93 1504.77C1371.92 1501.16 1340.66 1497.14 1311.55 1496.32L1300.62 1494.47L1281.22 1493.92C1297.15 1468.89 1312.58 1444.76 1326.11 1418.33C1329.16 1408.58 1330.09 1401.5 1331.72 1391.5C1344.25 1390.24 1351.2 1389.9 1363.85 1390.04C1375.25 1369.38 1378.75 1361.05 1401.98 1354.12C1424.27 1355.75 1474.91 1354.05 1499.57 1354.18C1530.08 1350.6 1681.06 1359.05 1694.25 1350.52Z"/><path fill="#606062" d="M1363.85 1390.04C1375.25 1369.38 1378.75 1361.05 1401.98 1354.12C1379.49 1382.96 1366.59 1403.7 1348.76 1435.79C1340.24 1451.13 1321.66 1483.93 1311.55 1496.32L1300.62 1494.47L1281.22 1493.92C1297.15 1468.89 1312.58 1444.76 1326.11 1418.33C1329.16 1408.58 1330.09 1401.5 1331.72 1391.5C1344.25 1390.24 1351.2 1389.9 1363.85 1390.04Z"/><path fill="#282829" d="M1326.11 1418.33C1338.55 1419.06 1334.4 1421.46 1340.26 1431.3C1327.96 1451.63 1314.36 1475.43 1300.62 1494.47L1281.22 1493.92C1297.15 1468.89 1312.58 1444.76 1326.11 1418.33Z"/><path fill="#606062" d="M1331.72 1391.5C1344.25 1390.24 1351.2 1389.9 1363.85 1390.04C1356.59 1402.89 1348.03 1419.06 1340.26 1431.3C1334.4 1421.46 1338.55 1419.06 1326.11 1418.33C1329.16 1408.58 1330.09 1401.5 1331.72 1391.5Z"/><path fill="#606062" d="M1770.23 1362.33C1776 1366.61 1775.62 1366.26 1777.98 1373.08C1777.32 1383.63 1773.92 1387.89 1768.65 1397.38C1761.79 1408.12 1754.35 1420.35 1746.87 1430.49C1735.31 1445.75 1735.89 1449.87 1733.29 1468.5L1730.39 1479.43C1733.85 1491.77 1737.75 1504.76 1740.42 1517.21C1729.08 1517.95 1719.59 1518.15 1708.27 1518.22L1693.5 1518.42C1715.11 1489.08 1723.01 1478.68 1724.57 1441.25C1757.73 1401.05 1747.74 1403.75 1769.34 1363.92L1770.23 1362.33Z"/><path fill="#1E1D1D" d="M1730.39 1479.43C1733.85 1491.77 1737.75 1504.76 1740.42 1517.21C1729.08 1517.95 1719.59 1518.15 1708.27 1518.22C1720.56 1504.34 1723.77 1496.08 1730.39 1479.43Z"/><path fill="#434343" d="M1694.25 1350.52C1714.44 1350.89 1742.57 1352.04 1762.63 1354.45L1760.73 1358.72C1693.5 1355.68 1627.19 1355.91 1559.93 1356.16C1541.53 1356.23 1517.49 1356.98 1499.57 1354.18C1530.08 1350.6 1681.06 1359.05 1694.25 1350.52Z"/><path fill="#B6B6B6" d="M1451.01 1402.02C1519.38 1401.64 1587.75 1402.26 1656.1 1403.9C1648.52 1422.81 1636.74 1453.87 1626.68 1470.07C1556.03 1470.76 1486.1 1467.92 1415.38 1468.16C1426.2 1450.71 1440.34 1421.35 1451.01 1402.02Z"/><path fill="#606062" d="M1579.09 1386.97C1592.52 1385.29 1610.36 1382.63 1621.11 1390.8C1606.88 1393.64 1592.47 1392.54 1579.09 1386.97Z"/><path fill="#606062" d="M1528.74 1384.49C1539.22 1384.38 1541.85 1384.82 1552.16 1386.97L1553.24 1388.9L1546.5 1390.21C1538.23 1390.36 1525.25 1390.61 1517.85 1387.87C1521.86 1384.71 1523.14 1385.33 1528.74 1384.49Z"/><path fill="#606062" d="M1646.01 1387.01C1660.77 1385.47 1673.21 1384.14 1687.52 1388.92C1673.66 1390.38 1658.56 1393.23 1646.01 1387.01Z"/><path fill="#818181" d="M1596.73 1497.07C1607.03 1495.62 1624.45 1492.93 1632.57 1499.54C1619.24 1501.05 1609.18 1502.95 1596.73 1497.07Z"/><path fill="#C57170" d="M1246.08 1353.4C1253.04 1349.21 1269.37 1348.89 1277.98 1348.48C1286.52 1354.07 1295.97 1351.65 1306.93 1353.68L1323.42 1353.98C1327.94 1356.97 1328.93 1356.8 1330.74 1361.65L1332.27 1376.58L1331.72 1391.5C1330.09 1401.5 1329.16 1408.58 1326.11 1418.33C1312.58 1444.76 1297.15 1468.89 1281.22 1493.92L1222.2 1493.51C1210.3 1493.76 1198.4 1493.85 1186.5 1493.78C1136.11 1497.55 1052.68 1510.35 1008.31 1510.62C997.383 1491.2 1006.37 1497.87 1014.28 1480.88C1014.42 1480.59 1016.82 1470.36 1017.16 1469.08C1021.42 1460.15 1021.41 1449.58 1021.7 1439.83L1024 1433.46C1027.05 1427.89 1030.5 1419.6 1033.22 1413.63C1045.22 1400.66 1056.25 1386.5 1067.34 1372.72C1099.48 1340.54 1201.07 1351.54 1246.08 1353.4Z"/><path fill="#A13133" d="M1323.42 1353.98C1327.94 1356.97 1328.93 1356.8 1330.74 1361.65L1332.27 1376.58L1331.72 1391.5C1330.09 1401.5 1329.16 1408.58 1326.11 1418.33C1312.58 1444.76 1297.15 1468.89 1281.22 1493.92L1222.2 1493.51C1210.3 1493.76 1198.4 1493.85 1186.5 1493.78C1136.11 1497.55 1052.68 1510.35 1008.31 1510.62C997.383 1491.2 1006.37 1497.87 1014.28 1480.88C1014.42 1480.59 1016.82 1470.36 1017.16 1469.08C1021.42 1460.15 1021.41 1449.58 1021.7 1439.83L1024 1433.46C1040.77 1441.52 1244.74 1440.08 1276.13 1440.26C1294.46 1417.27 1315.83 1382.3 1323.42 1353.98Z"/><path fill="#B04742" d="M1323.42 1353.98C1327.94 1356.97 1328.93 1356.8 1330.74 1361.65C1322.07 1393.89 1308.08 1413.62 1290.25 1441.99C1269.35 1449.05 1217.61 1449.36 1195.56 1446.73C1161.3 1442.65 1045.87 1452.88 1021.7 1439.83L1024 1433.46C1040.77 1441.52 1244.74 1440.08 1276.13 1440.26C1294.46 1417.27 1315.83 1382.3 1323.42 1353.98Z"/><defs><linearGradient id="gradient_3" gradientUnits="userSpaceOnUse" x1="1062.0427" y1="1531.9779" x2="1097.1581" y2="1461.6298"><stop offset="0" stop-color="#151112"/><stop offset="1" stop-color="#343936"/></linearGradient></defs><path fill="url(#gradient_3)" d="M1008.31 1510.62C997.383 1491.2 1006.37 1497.87 1014.28 1480.88C1014.42 1480.59 1016.82 1470.36 1017.16 1469.08C1020.95 1475.93 1023.96 1481.31 1027.13 1488.44C1046.93 1490.12 1063.68 1490.21 1083.46 1490.33C1114.3 1493.81 1152.31 1490.61 1186.5 1493.78C1136.11 1497.55 1052.68 1510.35 1008.31 1510.62Z"/><path fill="#633433" d="M1083.46 1490.33C1114.39 1489.23 1194.81 1488.1 1222.2 1493.51C1210.3 1493.76 1198.4 1493.85 1186.5 1493.78C1152.31 1490.61 1114.3 1493.81 1083.46 1490.33Z"/><path fill="#282829" d="M1246.08 1353.4C1253.04 1349.21 1269.37 1348.89 1277.98 1348.48C1286.52 1354.07 1295.97 1351.65 1306.93 1353.68C1286.91 1354.35 1266.17 1353.71 1246.08 1353.4Z"/><path fill="#B75858" d="M1158 1387.66C1169.36 1384.28 1206.8 1379.12 1217.48 1381.5C1217.35 1386.5 1214.66 1388.95 1211.57 1393.07L1208.15 1393.68L1204.15 1395.19L1204.99 1398.67C1202.59 1403.49 1202.35 1404.18 1199.02 1408.35L1199.04 1410.13C1186.64 1423.46 1152.55 1421.1 1140.98 1411.37L1142.36 1407.78C1150.43 1404.76 1152.58 1400.55 1158.28 1393.57C1158.19 1391.6 1158.09 1389.63 1158 1387.66Z"/><path fill="#B04742" d="M1142.36 1407.78C1159.95 1408.51 1185.37 1405.2 1199.04 1410.13C1186.64 1423.46 1152.55 1421.1 1140.98 1411.37L1142.36 1407.78Z"/><path fill="#A13133" d="M1158 1387.66C1169.36 1384.28 1206.8 1379.12 1217.48 1381.5C1217.35 1386.5 1214.66 1388.95 1211.57 1393.07L1208.15 1393.68C1198.57 1390.13 1170.1 1389.05 1158 1387.66Z"/><path fill="#A13133" d="M1203.27 1368.78C1209.3 1368.23 1216.83 1368.95 1222.46 1371.32C1210.31 1375.11 1208.83 1373.01 1197 1374.47L1193.58 1374.91C1186.77 1376.01 1177.72 1376.8 1171.07 1375.06C1178.15 1371.4 1194.42 1370.03 1203.27 1368.78Z"/><path fill="#0B0A0B" d="M922.702 1479.23C931.859 1464.38 941.826 1450.04 952.557 1436.28C986.878 1392.05 1013.2 1379.77 1067.34 1372.72C1056.25 1386.5 1045.22 1400.66 1033.22 1413.63C1030.5 1419.6 1027.05 1427.89 1024 1433.46L1021.7 1439.83C1021.41 1449.58 1021.42 1460.15 1017.16 1469.08C1016.82 1470.36 1014.42 1480.59 1014.28 1480.88C1006.37 1497.87 997.383 1491.2 1008.31 1510.62C993.258 1505.82 974.318 1502.1 958.643 1498.59C942.024 1490.75 938.433 1489.63 922.702 1479.23Z"/><path fill="#606062" d="M958.643 1498.59C983.922 1472.42 1006.52 1434.41 1033.22 1413.63C1030.5 1419.6 1027.05 1427.89 1024 1433.46L1021.7 1439.83C1021.41 1449.58 1021.42 1460.15 1017.16 1469.08C1016.82 1470.36 1014.42 1480.59 1014.28 1480.88C1006.37 1497.87 997.383 1491.2 1008.31 1510.62C993.258 1505.82 974.318 1502.1 958.643 1498.59Z"/><path fill="#1E1D1D" d="M1768.65 1397.38C1791.41 1400.84 1811.43 1399.7 1834.26 1400.31C1844.21 1400.84 1844.33 1404.86 1852.88 1407.25L1852.13 1411.05L1848.23 1412.92L1837.19 1412.19C1834.17 1419.89 1832.6 1425.04 1827.98 1431.82L1821.38 1439.79C1816.14 1449.41 1814.02 1452.57 1811.83 1463.48C1806.55 1470.92 1808.15 1471.36 1801.35 1473.29L1795.94 1469.67C1793.92 1469.09 1767.21 1470.99 1754.47 1469.41C1748.03 1467.36 1740.23 1468.24 1733.29 1468.5C1735.89 1449.87 1735.31 1445.75 1746.87 1430.49C1754.35 1420.35 1761.79 1408.12 1768.65 1397.38Z"/><path fill="#434343" d="M1769.75 1462.05C1776.01 1460.85 1774.32 1461.74 1779.6 1458.79L1773.53 1453.05C1768.8 1432.53 1822.63 1417.01 1837.19 1412.19C1834.17 1419.89 1832.6 1425.04 1827.98 1431.82L1821.38 1439.79C1816.14 1449.41 1814.02 1452.57 1811.83 1463.48C1806.55 1470.92 1808.15 1471.36 1801.35 1473.29L1795.94 1469.67C1793.92 1469.09 1767.21 1470.99 1754.47 1469.41L1755.05 1467.01C1760.27 1462.6 1762.97 1462.92 1769.75 1462.05Z"/><defs><linearGradient id="gradient_4" gradientUnits="userSpaceOnUse" x1="1813.6981" y1="1454.1661" x2="1758.2781" y2="1452.7913"><stop offset="0" stop-color="#5F6163"/><stop offset="1" stop-color="#767576"/></linearGradient></defs><path fill="url(#gradient_4)" d="M1769.75 1462.05C1777.99 1462.14 1786.53 1463.02 1792.85 1459C1789.9 1453.01 1790.31 1456 1790.97 1449.81C1797.33 1443.15 1812.77 1434.18 1821.38 1439.79C1816.14 1449.41 1814.02 1452.57 1811.83 1463.48C1806.55 1470.92 1808.15 1471.36 1801.35 1473.29L1795.94 1469.67C1793.92 1469.09 1767.21 1470.99 1754.47 1469.41L1755.05 1467.01C1760.27 1462.6 1762.97 1462.92 1769.75 1462.05Z"/><path fill="#434343" d="M1768.65 1397.38C1791.41 1400.84 1811.43 1399.7 1834.26 1400.31C1824.63 1412.44 1772.3 1428.14 1757.51 1429.97C1753.98 1430.4 1750.42 1430.58 1746.87 1430.49C1754.35 1420.35 1761.79 1408.12 1768.65 1397.38Z"/><path fill="#434343" d="M1754.56 1437.03C1759.42 1438.9 1757.5 1437.3 1760.21 1441.93C1758.55 1448.38 1752.3 1453.11 1747.26 1457.96L1743.25 1457.36L1741.47 1454.05C1744.07 1446.79 1749.14 1442.61 1754.56 1437.03Z"/><path fill="#0B0A0B" d="M1335.27 1345.49C1461.1 1338.9 1568.85 1337.77 1694.25 1350.52C1681.06 1359.05 1530.08 1350.6 1499.57 1354.18C1474.91 1354.05 1424.27 1355.75 1401.98 1354.12C1378.75 1361.05 1375.25 1369.38 1363.85 1390.04C1351.2 1389.9 1344.25 1390.24 1331.72 1391.5L1332.27 1376.58C1338.94 1362.5 1341.93 1360.33 1335.27 1345.49Z"/><path fill="#0B0A0B" d="M1762.63 1354.45C1806.41 1353.38 1855.46 1358.46 1900.86 1358.25C1891.61 1371.79 1866.04 1392.88 1852.88 1407.25C1844.33 1404.86 1844.21 1400.84 1834.26 1400.31C1811.43 1399.7 1791.41 1400.84 1768.65 1397.38C1773.92 1387.89 1777.32 1383.63 1777.98 1373.08C1775.62 1366.26 1776 1366.61 1770.23 1362.33L1760.73 1358.72L1762.63 1354.45Z"/><path fill="#1E1D1D" d="M1277.98 1348.48C1297.42 1346.87 1315.83 1346.19 1335.27 1345.49C1341.93 1360.33 1338.94 1362.5 1332.27 1376.58L1330.74 1361.65C1328.93 1356.8 1327.94 1356.97 1323.42 1353.98L1306.93 1353.68C1295.97 1351.65 1286.52 1354.07 1277.98 1348.48Z"/><path fill="#0B0A0B" d="M1795.94 1469.67L1801.35 1473.29C1808.15 1471.36 1806.55 1470.92 1811.83 1463.48L1812.25 1499.35C1822.66 1507.7 1832.27 1515.52 1842.28 1524.34C1829.51 1524.31 1816.38 1525.17 1804.05 1522.44C1792.73 1522.15 1748.63 1521.71 1740.42 1517.21C1737.75 1504.76 1733.85 1491.77 1730.39 1479.43L1733.29 1468.5C1740.23 1468.24 1748.03 1467.36 1754.47 1469.41C1767.21 1470.99 1793.92 1469.09 1795.94 1469.67Z"/><path fill="#434343" d="M1795.94 1469.67L1801.35 1473.29C1808.15 1471.36 1806.55 1470.92 1811.83 1463.48L1812.25 1499.35C1822.66 1507.7 1832.27 1515.52 1842.28 1524.34C1829.51 1524.31 1816.38 1525.17 1804.05 1522.44C1795.05 1511.68 1764.9 1496.91 1766.9 1481.6C1779.56 1473.63 1785.14 1484.11 1795.94 1469.67Z"/><path fill="#818181" d="M1583.99 1645.37L1586.02 1642.49C1594.39 1642.48 1599.8 1645.24 1605.98 1650.89L1607.27 1655.27L1583.99 1645.37Z"/><path fill="#818181" d="M754.581 1484.9C760.143 1483.88 757.434 1483.48 762.863 1485.34C758.436 1488.62 750.123 1489.81 744.369 1491.09C738.066 1490.63 736.787 1491.02 731.121 1488.14C737.811 1485.09 747.006 1485.32 754.581 1484.9Z"/><path fill="#B6B6B6" d="M829.498 1414.19C833.374 1414.01 837.388 1414.07 841.281 1414.05L842.328 1415.8L835.146 1419.7C828.901 1420.12 828.108 1419.95 821.848 1419.1L822.082 1416.91L829.498 1414.19Z"/><path fill="#0B0A0B" d="M766.489 1851.38C926.804 1769.58 1173.04 1780.26 1341.24 1834.73C1481.74 1880.23 1590.2 1960.44 1681.56 2075.68C1688.3 2084.5 1695.3 2093.17 1701.05 2102.64C1723.37 2133.67 1743.08 2166.5 1759.97 2200.79C1783.62 2248.59 1813.53 2324.21 1821.02 2376.47C1837.4 2443.07 1836.8 2518.79 1845.67 2587.04C1847.98 2604.87 1853.79 2621.69 1851.92 2638.57C1851.12 2630.5 1851.17 2623.87 1847.59 2616.67C1829.09 2608.28 1768.97 2603.11 1744.77 2607.56C1735.76 2629.85 1732.9 2657.07 1723.62 2679.61C1721.78 2684.09 1710.71 2691.72 1710.61 2692.17C1706.47 2710.81 1702.58 2743.19 1686.81 2756.36C1656.56 2759.44 1653.78 2776.79 1641.15 2801.68L1654.03 2819.51C1646.23 2838.21 1630.19 2885 1611.24 2895.04C1600.88 2900.53 1581.13 2881.9 1568.59 2887.59C1561.96 2898.89 1567.07 2912.15 1570.01 2925.08C1559.62 2932.64 1555.32 2936.39 1546.15 2945.08C1513.19 2942.68 1500.66 2955.32 1472.75 2973.15L1466.69 3027.2C1455.84 3032.25 1448.26 3034.64 1437.03 3038.28C1423.51 3029.19 1415.69 3020.62 1405.17 3008.52C1393.41 3012.67 1382.81 3017.7 1371.48 3022.87C1365.7 3030.42 1361.11 3039.54 1356.48 3047.93C1354.73 3048.56 1337.96 3054.58 1336.64 3054.16C1327.69 3051.31 1262.86 3051.37 1259.39 3059.46C1251.39 3078.13 1254.38 3099.63 1232.47 3113.6C1209.7 3115.96 1202.5 3088.34 1196.23 3071.1C1177.83 3071.31 1162.8 3072.55 1144.77 3075.78C1140.44 3080.45 1131.6 3091.12 1124.89 3088.91C1085.78 3076 1057.16 3070.41 1015.68 3067.51C1007.26 3081.67 1002.42 3093.94 996.005 3109.15L967.626 3102.88C966.067 3090.25 964.525 3068.89 957.314 3058.91C926.965 3016.9 890.939 3075.18 861.467 3018.83C841.163 3009.53 821.043 2999.83 801.117 2989.74C787.971 3004.04 785.723 3007.26 769.952 3017.64C761.253 3014.96 755.987 3014.13 749.164 3008.27C741.915 2995.74 750.299 2979.41 754.077 2962.09C733.955 2947.34 709.662 2922.83 685.471 2919.36C671.843 2917.4 648.149 2869.75 637.775 2856.98C625.495 2861.73 607.259 2871.49 595.01 2877.59C537.406 2832.03 622.191 2844.2 584.905 2789.73C578.147 2779.86 536.309 2731.18 536.647 2732.95C524.565 2669.78 542.039 2664.34 470.802 2663.2C468.21 2655.68 462.994 2642.35 464.148 2634.99C471.28 2589.54 513.94 2565.43 469.068 2521.06C467.917 2512.15 467.602 2500.77 467.092 2491.62C468.876 2488.73 470.566 2485.79 472.161 2482.79C488.228 2452.31 462.818 2443.99 440.199 2434.22C448.202 2398.38 456.781 2377.2 476.696 2346.43C488.307 2328.49 496.454 2318.97 478.749 2301.6C480.022 2295.85 483.675 2278.99 486.013 2274.95C502.045 2247.24 510.737 2248.7 521.108 2216.88C520.612 2216.32 520.116 2215.77 519.62 2215.21L517.371 2212.57C511.355 2205.59 510.847 2205.92 509.43 2196.92L505.722 2192.98C501.08 2179.38 507.736 2102.28 510.557 2084.57C512.767 2073.35 513.909 2066.56 515.056 2055.13L513.095 2052.53C528.43 2032.01 549.739 2010.61 568.14 1992.92C589.987 1968.35 640.381 1928.14 668.088 1909.63C696.888 1888.08 733.972 1865.65 766.489 1851.38Z"/><path fill="#282829" d="M766.489 1851.38C926.804 1769.58 1173.04 1780.26 1341.24 1834.73C1481.74 1880.23 1590.2 1960.44 1681.56 2075.68C1688.3 2084.5 1695.3 2093.17 1701.05 2102.64C1723.37 2133.67 1743.08 2166.5 1759.97 2200.79C1750.95 2210.57 1750.96 2228.84 1741.94 2240.77C1740.39 2242.82 1748.69 2255.04 1743.6 2259.9L1736.09 2258.59C1736.17 2264.1 1739.31 2265.96 1743.55 2271.48C1736.16 2270.89 1734.79 2271.25 1727.93 2273.1L1726.24 2273.56L1725.84 2270.64C1721.97 2266.47 1720.19 2265.33 1715.27 2262.42C1710.34 2249.18 1716.02 2244.84 1703.41 2231.52C1697.43 2225.57 1695.23 2226.87 1687.2 2227.56C1671 2215.5 1678.34 2195.18 1654.05 2172.06C1637.39 2147.65 1616.01 2129.22 1598.98 2104.03C1601.71 2090.68 1604.44 2081.79 1608.57 2068.75C1597.27 2053.01 1590.27 2043.44 1577.26 2029.3L1550.26 2036.99C1527.19 2023.77 1517.69 2008.31 1498.89 1993.69C1475.95 1975.86 1438.66 1954.85 1412.6 1941.31C1410.91 1930.3 1410.39 1920.88 1409.69 1909.83C1394.83 1901.13 1385.23 1895.6 1369.58 1888.75C1366.24 1890.89 1346.3 1907.77 1344.46 1907.46C1310.57 1901.7 1278.4 1883.94 1245.13 1875.52C1219.19 1868.95 1191.91 1866.39 1165.27 1864.31L1158.31 1836.36L1110.77 1831.17C1078 1891.57 1021.73 1840.01 980.837 1859.95C956.301 1871.92 941.51 1883.83 907.619 1879.79L901.437 1875.45C884.028 1863 871.405 1870 852.462 1875.82C843.275 1889.79 840.074 1898.2 833.545 1913.76C817.247 1925.48 795.012 1934.82 776.455 1943.19L763.44 1930.51C723.277 1949.66 730.6 1958.51 703.523 1991.4C698.892 1997.03 686.09 2006.06 679.64 2010.68C654.73 2030.13 655.498 1991.72 627.879 2028.44C616.452 2020.97 616.347 2021.89 604.766 2027.05C597.972 2005.61 620.612 2002.32 590.151 1989.33C583.163 1986.36 581.214 1992.98 568.14 1992.92C589.987 1968.35 640.381 1928.14 668.088 1909.63C696.888 1888.08 733.972 1865.65 766.489 1851.38Z"/><path fill="#434343" d="M668.088 1909.63C669.666 1910.83 670.733 1911.94 672.465 1912.56C681.35 1913.18 680.02 1911.74 685.999 1916.24C688.855 1923.85 688.539 1920.08 687.13 1927.97C681.755 1931.64 682.867 1930.35 674.576 1929.75C675.66 1934.06 681.545 1936.69 685.661 1943.46C685.949 1958.26 675.762 1954.21 673.435 1966.18L675.555 1970.78L683.626 1971.34L685.782 1975.22C683.205 1983.18 683.662 1977.74 677.721 1983.37C685.701 1996.66 684.159 1994.77 679.64 2010.68C654.73 2030.13 655.498 1991.72 627.879 2028.44C616.452 2020.97 616.347 2021.89 604.766 2027.05C597.972 2005.61 620.612 2002.32 590.151 1989.33C583.163 1986.36 581.214 1992.98 568.14 1992.92C589.987 1968.35 640.381 1928.14 668.088 1909.63Z"/><path fill="#434343" d="M766.489 1851.38C756.342 1864.77 740.725 1880.5 724.782 1886.46C720.366 1885.94 716.502 1885.52 712.068 1885.23C706.681 1891.79 707.063 1904.45 712.993 1910.53L716.747 1911.16C709.544 1912.07 704.23 1913.06 696.927 1912.5L704.558 1908.37C704.132 1902.98 705.014 1905.61 699.785 1900.98C690.849 1899.36 674.872 1903.47 672.465 1912.56C670.733 1911.94 669.666 1910.83 668.088 1909.63C696.888 1888.08 733.972 1865.65 766.489 1851.38Z"/><path fill="#434343" d="M1681.56 2075.68C1688.3 2084.5 1695.3 2093.17 1701.05 2102.64C1694.12 2101.95 1694.68 2103.52 1686.91 2107.18L1683.73 2105.02C1678.3 2091.86 1680.21 2095.81 1670.59 2087.09C1674.26 2082.93 1677.65 2079.56 1681.56 2075.68Z"/><path fill="#434343" d="M1678.24 2171.7C1689.88 2171.83 1707.05 2174.42 1710.76 2187.15C1698.3 2183.66 1696.29 2189.74 1684.51 2186.7C1678.54 2180.03 1680.37 2181.71 1678.24 2171.7Z"/><defs><linearGradient id="gradient_5" gradientUnits="userSpaceOnUse" x1="1725.7557" y1="2427.8735" x2="1853.6868" y2="2595.0571"><stop offset="0" stop-color="#686768"/><stop offset="1" stop-color="#9D9C9B"/></linearGradient></defs><path fill="url(#gradient_5)" d="M1741.85 2449.68C1772.5 2439.1 1756.17 2400.57 1788.32 2384.54C1792.99 2376.94 1797.49 2369.8 1806.18 2366.81C1811.56 2370.73 1815.29 2373.06 1821.02 2376.47C1837.4 2443.07 1836.8 2518.79 1845.67 2587.04C1847.98 2604.87 1853.79 2621.69 1851.92 2638.57C1851.12 2630.5 1851.17 2623.87 1847.59 2616.67C1829.09 2608.28 1768.97 2603.11 1744.77 2607.56C1739.58 2605.36 1727.18 2603.42 1721.06 2602.23C1724.06 2585.47 1726.46 2554.45 1735.98 2541.96C1741.99 2540.07 1743.14 2540 1748.58 2536.59C1757.25 2518.02 1760.11 2479.28 1762.55 2457.32L1741.85 2449.68Z"/><defs><linearGradient id="gradient_6" gradientUnits="userSpaceOnUse" x1="1717.5228" y1="2315.2153" x2="1822.3014" y2="2352.0994"><stop offset="0" stop-color="#3F403F"/><stop offset="1" stop-color="#666364"/></linearGradient></defs><path fill="url(#gradient_6)" d="M1759.97 2200.79C1783.62 2248.59 1813.53 2324.21 1821.02 2376.47C1815.29 2373.06 1811.56 2370.73 1806.18 2366.81C1797.49 2369.8 1792.99 2376.94 1788.32 2384.54C1756.17 2400.57 1772.5 2439.1 1741.85 2449.68C1729.05 2439.53 1751.86 2400.39 1739.96 2382.89C1732.6 2380.65 1729.27 2379.84 1723.05 2375.41C1714.84 2351.89 1711.42 2336.53 1709.43 2311.98L1718.83 2293.49C1718.2 2283.78 1716.47 2272.22 1715.27 2262.42C1720.19 2265.33 1721.97 2266.47 1725.84 2270.64L1726.24 2273.56L1727.93 2273.1C1734.79 2271.25 1736.16 2270.89 1743.55 2271.48C1739.31 2265.96 1736.17 2264.1 1736.09 2258.59L1743.6 2259.9C1748.69 2255.04 1740.39 2242.82 1741.94 2240.77C1750.96 2228.84 1750.95 2210.57 1759.97 2200.79Z"/><path fill="#434343" d="M1715.27 2262.42C1720.19 2265.33 1721.97 2266.47 1725.84 2270.64L1726.24 2273.56L1727.93 2273.1C1734.79 2271.25 1736.16 2270.89 1743.55 2271.48L1742.97 2273.62C1740.39 2282.86 1739.23 2285.36 1734.81 2293.85L1737.22 2296.12L1747.78 2295.18L1748.28 2297.59C1743.96 2300.36 1739.66 2303.17 1735.38 2306.01L1736.02 2308.75C1745.72 2314.1 1744.38 2311.37 1747.04 2319.41C1745.17 2325.76 1744.89 2325.45 1740.54 2330.63L1746.28 2333.27C1748.15 2349.71 1734.72 2365.55 1723.05 2375.41C1714.84 2351.89 1711.42 2336.53 1709.43 2311.98L1718.83 2293.49C1718.2 2283.78 1716.47 2272.22 1715.27 2262.42Z"/><path fill="#606062" d="M1770.92 2321.2C1775.57 2324.42 1775.52 2324.02 1777.78 2329.13C1774.56 2335.89 1776.9 2332.83 1768.67 2337.06C1761.9 2333.38 1762.31 2334.93 1759.12 2329.25C1762.87 2323.77 1763.96 2324.62 1770.92 2321.2Z"/><defs><linearGradient id="gradient_7" gradientUnits="userSpaceOnUse" x1="558.55225" y1="1993.5181" x2="556.28387" y2="2188.5847"><stop offset="0" stop-color="#504F4F"/><stop offset="1" stop-color="#6F6F6F"/></linearGradient></defs><path fill="url(#gradient_7)" d="M568.14 1992.92C581.214 1992.98 583.163 1986.36 590.151 1989.33C620.612 2002.32 597.972 2005.61 604.766 2027.05C616.347 2021.89 616.452 2020.97 627.879 2028.44C620.858 2037.77 612.388 2048.52 605.902 2058C597.485 2073.74 603.439 2073.55 614.009 2088.13C603.433 2101.8 591.749 2117.68 580.799 2130.8C571.297 2128.78 560.983 2126.35 551.502 2124.66C540.994 2139.95 514.846 2179.73 509.43 2196.92L505.722 2192.98C501.08 2179.38 507.736 2102.28 510.557 2084.57C512.767 2073.35 513.909 2066.56 515.056 2055.13L513.095 2052.53C528.43 2032.01 549.739 2010.61 568.14 1992.92Z"/><path fill="#606062" d="M604.766 2027.05C616.347 2021.89 616.452 2020.97 627.879 2028.44C620.858 2037.77 612.388 2048.52 605.902 2058C599.978 2054.87 597.349 2053.97 592.842 2048.89C595.152 2045.02 597.584 2041.3 600.03 2037.52C598.875 2032.89 598.981 2034.51 599.253 2029.69L604.766 2027.05Z"/><path fill="#606062" d="M515.056 2055.13L520.159 2052.82L524.262 2054.99C526.527 2062.49 522.856 2072.95 520.156 2080.1C515.928 2083.93 516.227 2083.64 510.557 2084.57C512.767 2073.35 513.909 2066.56 515.056 2055.13Z"/><path fill="#1E1D1D" d="M1654.05 2172.06C1678.34 2195.18 1671 2215.5 1687.2 2227.56C1695.23 2226.87 1697.43 2225.57 1703.41 2231.52C1664.23 2234.91 1663.09 2203.31 1654.05 2172.06Z"/><defs><linearGradient id="gradient_8" gradientUnits="userSpaceOnUse" x1="3276.3242" y1="2960.3208" x2="3411.4263" y2="2079.7781"><stop offset="0" stop-color="#A1A1A1"/><stop offset="1" stop-color="#C3C2C2"/></linearGradient></defs><path fill="url(#gradient_8)" d="M3827.42 2125.62C3843.46 2149.39 3859.99 2176.08 3865.85 2204.47C3868.34 2216.52 3866.84 2234.14 3866.01 2246.73C3860.71 2327 3862.99 2408.3 3851.13 2488.03C3850.73 2490.76 3849.81 2493.81 3849.07 2496.46C3845.99 2511.3 3844.2 2519.08 3835.48 2532.03L3831.08 2537.64C3824.12 2547.9 3827.21 2552.24 3815.45 2558.56L3813.08 2560.19C3804.68 2578.29 3809.14 2579.27 3790.08 2591.55L3784.22 2593.95C3781.75 2612.71 3776.78 2613.72 3759.97 2619.56C3758.37 2629.4 3758.36 2629.83 3753.26 2638.19C3747.81 2644.04 3736.02 2645.46 3727.89 2647.06C3727.32 2656.88 3727.39 2657.51 3723.76 2666.47L3719.17 2670.02C3708.59 2672.71 3700.43 2673.62 3689.69 2675.05C3680.98 2681.67 3685.33 2691.37 3680.33 2695.81C3532.35 2827.43 3327.38 2897.16 3130.96 2904.66C3127.41 2904.8 3125.31 2908.32 3123.8 2910.45C3110.31 2935.54 3095.84 2963.76 3081.04 2987.75C2997.61 2989.58 3010.97 2990.56 2990.16 2911.32C2976.74 2906.57 2888.24 2903.87 2866.69 2902.37C2833.66 2900.07 2812.36 2897.86 2777.68 2892.04C2788.06 2890.51 2798.6 2893.62 2804.67 2887.62C2808.46 2868.55 2801.02 2848.23 2803.23 2833.01C2818.64 2727.18 2867.09 2587.23 2977.03 2548.7C3042.89 2525.61 3114.47 2534.59 3180.74 2527.53C3387.91 2505.47 3615.86 2454.19 3769.56 2303.83C3822.34 2251.11 3828.79 2196.7 3827.42 2125.62Z"/><path fill="#1E1D1D" d="M2990.16 2911.32C3008.37 2911.6 3117.95 2907.15 3123.8 2910.45C3110.31 2935.54 3095.84 2963.76 3081.04 2987.75C2997.61 2989.58 3010.97 2990.56 2990.16 2911.32Z"/><path fill="#B6B6B6" d="M3690.35 2557.61C3689.92 2545.89 3691.18 2535.12 3703.6 2530.48C3734.49 2536.35 3705.25 2643.49 3710.37 2664.8C3715.39 2665.62 3718.69 2666.08 3723.76 2666.47L3719.17 2670.02C3708.59 2672.71 3700.43 2673.62 3689.69 2675.05C3684.64 2664.59 3689.49 2576.69 3690.35 2557.61Z"/><path fill="#818181" d="M3690.35 2557.61C3695.72 2596.87 3694.16 2629.51 3693.63 2669.04C3700.74 2669.14 3712.53 2668.95 3719.17 2670.02C3708.59 2672.71 3700.43 2673.62 3689.69 2675.05C3684.64 2664.59 3689.49 2576.69 3690.35 2557.61Z"/><path fill="#B6B6B6" d="M3727.89 2647.06C3735.67 2621.59 3722.78 2517.32 3742.68 2503.23L3745.62 2504.11C3757.03 2519.36 3744.22 2605.41 3747.77 2628.76C3748.9 2636.24 3746.93 2633.26 3753.26 2638.19C3747.81 2644.04 3736.02 2645.46 3727.89 2647.06Z"/><path fill="#B6B6B6" d="M3759.97 2619.56C3770.75 2589.72 3756.87 2490.55 3775.75 2476.98C3789.52 2488.66 3774.75 2584.34 3779.16 2594.7L3784.22 2593.95C3781.75 2612.71 3776.78 2613.72 3759.97 2619.56Z"/><path fill="#B6B6B6" d="M3790.08 2591.55C3796.66 2560.76 3787.44 2471.51 3805.06 2450.35C3817.1 2459.59 3801.5 2543.43 3807.78 2560.06L3813.08 2560.19C3804.68 2578.29 3809.14 2579.27 3790.08 2591.55Z"/><path fill="#B6B6B6" d="M3815.45 2558.56C3817.78 2540.74 3818.24 2429.63 3826.21 2423.16C3837.49 2448.51 3820.55 2525.3 3825.43 2536.32L3831.08 2537.64C3824.12 2547.9 3827.21 2552.24 3815.45 2558.56Z"/><path fill="#B6B6B6" d="M3835.48 2532.03C3834.99 2513.84 3838.49 2414.48 3846.34 2404.15C3846.93 2435.82 3841.84 2468.62 3842.78 2499.81L3849.07 2496.46C3845.99 2511.3 3844.2 2519.08 3835.48 2532.03Z"/><defs><linearGradient id="gradient_9" gradientUnits="userSpaceOnUse" x1="458.99979" y1="2059.1897" x2="455.46298" y2="2281.8008"><stop offset="0" stop-color="#6B6A68"/><stop offset="1" stop-color="#969796"/></linearGradient></defs><path fill="url(#gradient_9)" d="M513.095 2052.53L515.056 2055.13C513.909 2066.56 512.767 2073.35 510.557 2084.57C507.736 2102.28 501.08 2179.38 505.722 2192.98L509.43 2196.92C510.847 2205.92 511.355 2205.59 517.371 2212.57L519.62 2215.21C520.116 2215.77 520.612 2216.32 521.108 2216.88C510.737 2248.7 502.045 2247.24 486.013 2274.95C483.675 2278.99 480.022 2295.85 478.749 2301.6C462.627 2288.09 454.553 2280.09 433.82 2273.67C427.576 2274.07 421.919 2274.1 415.884 2275.74C410.145 2290.07 402.238 2294.31 388.844 2300.02L386.653 2300.94C393.291 2288.31 404.965 2243.73 411.368 2225.95C436.771 2155.43 466.572 2109.13 513.095 2052.53Z"/><path fill="#818181" d="M415.884 2275.74C423.574 2259.38 419.108 2255.04 438.841 2246.99L442.901 2248.74C445.127 2255.46 444.617 2255.53 442.953 2262.2C439.124 2266.54 437.165 2269.1 433.82 2273.67C427.576 2274.07 421.919 2274.1 415.884 2275.74Z"/><path fill="#1E1D1D" d="M1996.31 2906.94C2037.15 2901.39 2079.89 2898.78 2121.13 2895.5C2115.5 2937.53 2112.79 2956.72 2064.16 2954.12C2052.84 2953.51 2041.06 2953.3 2029.6 2952.36C2011.82 2940.43 2009.8 2931.6 2003.57 2910.41C1999.64 2907.39 2001.24 2908.15 1996.31 2906.94Z"/><path fill="#B6B6B6" d="M3799.94 2133.07C3799.73 2113.88 3799.12 2022.6 3804.84 2009.71L3805.55 2011.64C3810.52 2024.8 3820.3 2040.02 3823.24 2051.4C3829 2073.72 3817.9 2100.1 3825.78 2122.45C3816.14 2115.55 3817.79 2110.21 3817.04 2099.04C3812.89 2109.63 3805.44 2122.71 3799.94 2133.07Z"/></svg>